<svg width="20" height="20" viewBox="0 0 20 20" xmlns="http://www.w3.org/2000/svg">
    <path d="M1 1h2v2H1V1zm4 0h2v2H5V1zm4 0h2v2H9V1zm4 0h2v2h-2V1zm4 0h2v2h-2V1zM1 5h2v2H1V5zm4 0h2v2H5V5zm4 0h2v2H9V5zm4 0h2v2h-2V5zm4 0h2v2h-2V5zM1 9h2v2H1V9zm4 0h2v2H5V9zm4 0h2v2H9V9zm4 0h2v2h-2V9zm4 0h2v2h-2V9zM1 13h2v2H1v-2zm4 0h2v2H5v-2zm4 0h2v2H9v-2zm4 0h2v2h-2v-2zm4 0h2v2h-2v-2zM1 17h2v2H1v-2zm4 0h2v2H5v-2zm4 0h2v2H9v-2zm4 0h2v2h-2v-2zm4 0h2v2h-2v-2z" fill="#9C92AC" fill-opacity="0.2" fill-rule="evenodd"/>
</svg>
